<svg width="189" height="206" viewBox="0 0 189 206" fill="none" xmlns="http://www.w3.org/2000/svg">
<rect width="10" height="10" fill="#6D45B6"/>
<rect y="112" width="10" height="10" fill="#6D45B6"/>
<rect y="56" width="10" height="10" fill="#6D45B6"/>
<rect y="168" width="10" height="10" fill="#6D45B6"/>
<rect width="10" height="10" fill="#6D45B6"/>
<rect y="112" width="10" height="10" fill="#6D45B6"/>
<rect y="56" width="10" height="10" fill="#6D45B6"/>
<rect y="168" width="10" height="10" fill="#6D45B6"/>
<rect y="28" width="10" height="10" fill="#6D45B6"/>
<rect y="140" width="10" height="10" fill="#6D45B6"/>
<rect y="84" width="10" height="10" fill="#6D45B6"/>
<rect y="196" width="10" height="10" fill="#6D45B6"/>
<rect y="28" width="10" height="10" fill="#6D45B6"/>
<rect y="140" width="10" height="10" fill="#6D45B6"/>
<rect y="84" width="10" height="10" fill="#6D45B6"/>
<rect y="196" width="10" height="10" fill="#6D45B6"/>
<rect x="108" width="10" height="10" fill="#6D45B6"/>
<rect x="108" y="112" width="10" height="10" fill="#6D45B6"/>
<rect x="108" y="56" width="10" height="10" fill="#6D45B6"/>
<rect x="108" y="168" width="10" height="10" fill="#6D45B6"/>
<rect x="108" width="10" height="10" fill="#6D45B6"/>
<rect x="108" y="112" width="10" height="10" fill="#6D45B6"/>
<rect x="108" y="56" width="10" height="10" fill="#6D45B6"/>
<rect x="108" y="168" width="10" height="10" fill="#6D45B6"/>
<rect x="108" y="28" width="10" height="10" fill="#6D45B6"/>
<rect x="108" y="140" width="10" height="10" fill="#6D45B6"/>
<rect x="108" y="84" width="10" height="10" fill="#6D45B6"/>
<rect x="108" y="196" width="10" height="10" fill="#6D45B6"/>
<rect x="108" y="28" width="10" height="10" fill="#6D45B6"/>
<rect x="108" y="140" width="10" height="10" fill="#6D45B6"/>
<rect x="108" y="84" width="10" height="10" fill="#6D45B6"/>
<rect x="108" y="196" width="10" height="10" fill="#6D45B6"/>
<rect x="28" width="11" height="10" fill="#6D45B6"/>
<rect x="28" y="112" width="11" height="10" fill="#6D45B6"/>
<rect x="28" y="56" width="11" height="10" fill="#6D45B6"/>
<rect x="28" y="168" width="11" height="10" fill="#6D45B6"/>
<rect x="28" width="11" height="10" fill="#6D45B6"/>
<rect x="28" y="112" width="11" height="10" fill="#6D45B6"/>
<rect x="28" y="56" width="11" height="10" fill="#6D45B6"/>
<rect x="28" y="168" width="11" height="10" fill="#6D45B6"/>
<rect x="28" y="28" width="11" height="10" fill="#6D45B6"/>
<rect x="28" y="140" width="11" height="10" fill="#6D45B6"/>
<rect x="28" y="84" width="11" height="10" fill="#6D45B6"/>
<rect x="28" y="196" width="11" height="10" fill="#6D45B6"/>
<rect x="28" y="28" width="11" height="10" fill="#6D45B6"/>
<rect x="28" y="140" width="11" height="10" fill="#6D45B6"/>
<rect x="28" y="84" width="11" height="10" fill="#6D45B6"/>
<rect x="28" y="196" width="11" height="10" fill="#6D45B6"/>
<rect x="132" width="11" height="10" fill="#6D45B6"/>
<rect x="132" y="112" width="11" height="10" fill="#6D45B6"/>
<rect x="132" y="56" width="11" height="10" fill="#6D45B6"/>
<rect x="132" y="168" width="11" height="10" fill="#6D45B6"/>
<rect x="132" width="11" height="10" fill="#6D45B6"/>
<rect x="132" y="112" width="11" height="10" fill="#6D45B6"/>
<rect x="132" y="56" width="11" height="10" fill="#6D45B6"/>
<rect x="132" y="168" width="11" height="10" fill="#6D45B6"/>
<rect x="132" y="28" width="11" height="10" fill="#6D45B6"/>
<rect x="132" y="140" width="11" height="10" fill="#6D45B6"/>
<rect x="132" y="84" width="11" height="10" fill="#6D45B6"/>
<rect x="132" y="196" width="11" height="10" fill="#6D45B6"/>
<rect x="132" y="28" width="11" height="10" fill="#6D45B6"/>
<rect x="132" y="140" width="11" height="10" fill="#6D45B6"/>
<rect x="132" y="84" width="11" height="10" fill="#6D45B6"/>
<rect x="132" y="196" width="11" height="10" fill="#6D45B6"/>
<rect x="56" width="11" height="10" fill="#6D45B6"/>
<rect x="56" y="112" width="11" height="10" fill="#6D45B6"/>
<rect x="56" y="56" width="11" height="10" fill="#6D45B6"/>
<rect x="56" y="168" width="11" height="10" fill="#6D45B6"/>
<rect x="56" width="11" height="10" fill="#6D45B6"/>
<rect x="56" y="112" width="11" height="10" fill="#6D45B6"/>
<rect x="56" y="56" width="11" height="10" fill="#6D45B6"/>
<rect x="56" y="168" width="11" height="10" fill="#6D45B6"/>
<rect x="56" y="28" width="11" height="10" fill="#6D45B6"/>
<rect x="56" y="140" width="11" height="10" fill="#6D45B6"/>
<rect x="56" y="84" width="11" height="10" fill="#6D45B6"/>
<rect x="56" y="196" width="11" height="10" fill="#6D45B6"/>
<rect x="56" y="28" width="11" height="10" fill="#6D45B6"/>
<rect x="56" y="140" width="11" height="10" fill="#6D45B6"/>
<rect x="56" y="84" width="11" height="10" fill="#6D45B6"/>
<rect x="56" y="196" width="11" height="10" fill="#6D45B6"/>
<rect x="156" width="11" height="10" fill="#6D45B6"/>
<rect x="156" y="112" width="11" height="10" fill="#6D45B6"/>
<rect x="156" y="56" width="11" height="10" fill="#6D45B6"/>
<rect x="156" y="168" width="11" height="10" fill="#6D45B6"/>
<rect x="156" width="11" height="10" fill="#6D45B6"/>
<rect x="156" y="112" width="11" height="10" fill="#6D45B6"/>
<rect x="156" y="56" width="11" height="10" fill="#6D45B6"/>
<rect x="156" y="168" width="11" height="10" fill="#6D45B6"/>
<rect x="156" y="28" width="11" height="10" fill="#6D45B6"/>
<rect x="156" y="140" width="11" height="10" fill="#6D45B6"/>
<rect x="156" y="84" width="11" height="10" fill="#6D45B6"/>
<rect x="156" y="196" width="11" height="10" fill="#6D45B6"/>
<rect x="156" y="28" width="11" height="10" fill="#6D45B6"/>
<rect x="156" y="140" width="11" height="10" fill="#6D45B6"/>
<rect x="156" y="84" width="11" height="10" fill="#6D45B6"/>
<rect x="156" y="196" width="11" height="10" fill="#6D45B6"/>
<rect x="83" width="10" height="10" fill="#6D45B6"/>
<rect x="83" y="112" width="10" height="10" fill="#6D45B6"/>
<rect x="83" y="56" width="10" height="10" fill="#6D45B6"/>
<rect x="83" y="168" width="10" height="10" fill="#6D45B6"/>
<rect x="83" width="10" height="10" fill="#6D45B6"/>
<rect x="83" y="112" width="10" height="10" fill="#6D45B6"/>
<rect x="83" y="56" width="10" height="10" fill="#6D45B6"/>
<rect x="83" y="168" width="10" height="10" fill="#6D45B6"/>
<rect x="83" y="28" width="10" height="10" fill="#6D45B6"/>
<rect x="83" y="140" width="10" height="10" fill="#6D45B6"/>
<rect x="83" y="84" width="10" height="10" fill="#6D45B6"/>
<rect x="83" y="196" width="10" height="10" fill="#6D45B6"/>
<rect x="83" y="28" width="10" height="10" fill="#6D45B6"/>
<rect x="83" y="140" width="10" height="10" fill="#6D45B6"/>
<rect x="83" y="84" width="10" height="10" fill="#6D45B6"/>
<rect x="83" y="196" width="10" height="10" fill="#6D45B6"/>
<rect x="179" width="10" height="10" fill="#6D45B6"/>
<rect x="179" y="112" width="10" height="10" fill="#6D45B6"/>
<rect x="179" y="56" width="10" height="10" fill="#6D45B6"/>
<rect x="179" y="168" width="10" height="10" fill="#6D45B6"/>
<rect x="179" width="10" height="10" fill="#6D45B6"/>
<rect x="179" y="112" width="10" height="10" fill="#6D45B6"/>
<rect x="179" y="56" width="10" height="10" fill="#6D45B6"/>
<rect x="179" y="168" width="10" height="10" fill="#6D45B6"/>
<rect x="179" y="28" width="10" height="10" fill="#6D45B6"/>
<rect x="179" y="140" width="10" height="10" fill="#6D45B6"/>
<rect x="179" y="84" width="10" height="10" fill="#6D45B6"/>
<rect x="179" y="196" width="10" height="10" fill="#6D45B6"/>
<rect x="179" y="28" width="10" height="10" fill="#6D45B6"/>
<rect x="179" y="140" width="10" height="10" fill="#6D45B6"/>
<rect x="179" y="84" width="10" height="10" fill="#6D45B6"/>
<rect x="179" y="196" width="10" height="10" fill="#6D45B6"/>
</svg>
