<svg width="29" height="29" viewBox="0 0 29 29" fill="none" xmlns="http://www.w3.org/2000/svg">
<path fill-rule="evenodd" clip-rule="evenodd" d="M28.4183 17.6807C27.611 19.8202 24.1395 21.4348 19.9416 21.4348C19.3763 21.4348 18.8516 21.3945 18.327 21.354V23.2915C18.8517 23.3318 19.3766 23.3723 19.9416 23.3723C24.7451 23.3723 28.6204 21.2328 28.6204 18.6495C28.6204 18.2862 28.5396 17.9633 28.4187 17.6807H28.4183ZM17.3174 16.7926C17.3174 14.1686 13.4421 12.0697 8.67887 12.0697C3.87536 12.0697 0 14.1687 0 16.7926C0 17.0752 0.0403055 17.3578 0.121156 17.5999C0.847824 19.82 4.39996 21.5155 8.67852 21.5155C12.917 21.5155 16.4691 19.82 17.1956 17.5999C17.2764 17.3576 17.3168 17.0752 17.3168 16.7926H17.3174ZM17.1963 22.6054C16.5102 24.8255 12.9578 26.5209 8.67921 26.5209C4.40065 26.5209 0.847775 24.8255 0.12184 22.6054C-0.0396183 23.1706 -0.039618 23.7759 0.202688 24.3814C1.01001 26.5209 4.48149 28.1355 8.67947 28.1355C12.8371 28.1355 16.3491 26.5209 17.1562 24.3814C17.358 23.7759 17.3986 23.1703 17.1966 22.6054H17.1963ZM17.1963 19.2145C16.5102 21.4749 12.9578 23.1704 8.67921 23.1704C4.36011 23.1704 0.807479 21.4749 0.12184 19.2145C-0.0396183 19.7797 -0.039618 20.3447 0.162146 20.9099C0.92911 23.0898 4.44095 24.7447 8.67922 24.7447C12.8774 24.7447 16.4295 23.0896 17.1963 20.9099C17.3577 20.3447 17.3981 19.7797 17.1963 19.2145H17.1963ZM19.9411 9.44577C24.2199 9.44577 27.7725 7.75029 28.4582 5.53018C28.5793 5.28786 28.6196 5.00549 28.6196 4.72285C28.6196 2.09892 24.7443 0 19.9408 0C15.1372 0 11.2619 2.09899 11.2619 4.72285C11.2619 5.00547 11.3022 5.28808 11.4234 5.53018C12.1095 7.75029 15.6619 9.44577 19.9404 9.44577H19.9411ZM19.9411 13.0787C24.1796 13.0787 27.6913 11.4236 28.4582 9.20345C28.6599 8.59791 28.6599 7.95208 28.4179 7.34654C27.5703 9.48607 24.0988 11.0604 19.9411 11.0604C15.7834 11.0604 12.3117 9.48607 11.4643 7.34654C11.3432 7.66946 11.2625 7.99237 11.2625 8.35559C11.2625 9.2032 11.7066 10.0107 12.3928 10.6969C12.7157 10.7372 16.0258 12.5538 16.0258 12.5538C17.1963 12.8767 18.5285 13.0785 19.9414 13.0785L19.9411 13.0787ZM19.9411 16.4696C23.6549 16.4696 26.8036 15.2183 28.0546 13.4422C28.5793 12.6752 28.7407 11.7871 28.4584 10.9395C27.7317 13.1193 24.2199 14.8148 19.9413 14.8148C19.134 14.8148 18.2458 14.613 17.5597 14.613C17.8423 15.1782 18.0441 15.7835 18.1652 16.3891C18.7305 16.4294 19.3358 16.4699 19.9413 16.4699L19.9411 16.4696ZM19.9411 19.82C24.2199 19.82 27.7725 18.1245 28.4582 15.9044C28.6599 15.3392 28.6599 14.7742 28.4582 14.2089C27.6912 16.3887 24.1794 18.0437 19.9411 18.0437C19.3759 18.0437 18.8512 18.0034 18.3265 17.9628V19.7389C18.8512 19.7792 19.3761 19.8197 19.9411 19.8197V19.82Z" fill="#5622A7"/>
</svg>
